<svg width="34" height="25" viewBox="0 0 34 25" fill="none" xmlns="http://www.w3.org/2000/svg">
<path d="M33.0123 2.6203L28.8203 2.6203" stroke="white" stroke-width="1.048" stroke-linecap="round"/>
<path d="M30.9166 4.716L30.9166 0.524004" stroke="white" stroke-width="1.048" stroke-linecap="round"/>
<path d="M6.81237 11.0057C7.96996 11.0057 8.90837 10.0672 8.90837 8.90966C8.90837 7.75207 7.96996 6.81366 6.81237 6.81366C5.65478 6.81366 4.71637 7.75207 4.71637 8.90966C4.71637 10.0672 5.65478 11.0057 6.81237 11.0057Z" stroke="white" stroke-width="1.048" stroke-linecap="round" stroke-linejoin="round"/>
<path d="M1.57184 21.4854L9.97438 15.2541C11.2382 14.3309 13.062 14.4354 14.1979 15.4979L14.7259 16.0031C15.9737 17.1701 17.9895 17.1701 19.2374 16.0031L25.8926 9.78464C27.1405 8.6176 29.1563 8.6176 30.4041 9.78464L33.0118 12.2232" stroke="white" stroke-width="1.048" stroke-linecap="round" stroke-linejoin="round"/>
<path d="M25.152 2.62225H3.66799C1.9316 2.62225 0.523987 4.02987 0.523987 5.76625V20.4383C0.523987 22.1746 1.9316 23.5823 3.66799 23.5823H29.868C31.6044 23.5823 33.012 22.1746 33.012 20.4383V6.81425" stroke="white" stroke-width="1.048" stroke-linecap="round"/>
</svg>
